<?xml version="1.0" encoding="iso-8859-1"?>
<!DOCTYPE svg PUBLIC "-//W3C//DTD SVG 1.1//EN" "http://www.w3.org/Graphics/SVG/1.1/DTD/svg11.dtd">
<svg 
 version="1.1" xmlns="http://www.w3.org/2000/svg" xmlns:xlink="http://www.w3.org/1999/xlink" x="0px" y="0px" width="512px"
	 height="512px" viewBox="0 0 512 512" enable-background="new 0 0 512 512" xml:space="preserve"
><g id="b75708d097f2188dff6617b0f00c6451"><g></g><path display="inline" d="M494.749,92.801V71.035l-23.191,8.993c-0.075,0.027-19.399,7.036-57.196,7.036
		c-18.016,0-26.54-3.285-36.408-7.088c-11.299-4.354-24.104-9.288-48.044-9.288c-46.097,0-70.948,17.799-73.631,19.828L256,90.726
		l-0.278-0.21c-2.683-2.029-27.534-19.828-73.631-19.828c-23.941,0-36.745,4.934-48.044,9.288
		c-9.868,3.803-18.394,7.088-36.408,7.088c-37.796,0-57.121-7.009-57.313-7.08l-23.192-8.993l0.104,22.013l-16.68,0.006L0.5,111.3
		v298.716v8.675l8.088,3.14c1.04,0.403,25.995,9.868,74.271,9.868c25.658,0,39.303-5.257,51.342-9.901
		c11.299-4.354,21.063-8.118,41.556-8.118c40.492,0,61.838,15.295,62.037,15.453l16.094,12.181h4.225l16.094-12.181
		c0.129-0.1,21.578-15.453,62.037-15.453c20.493,0,30.257,3.764,41.556,8.118c12.039,4.645,25.684,9.901,51.342,9.901
		c48.276,0,73.231-9.465,74.271-9.868l8.088-3.14v-8.675V111.3V92.794L494.749,92.801z M363.701,92.865
		c0.845,0.289,1.677,0.582,2.496,0.879c0.141,0.052,0.278,0.104,0.42,0.156c0.682,0.248,1.359,0.499,2.029,0.753
		c0.17,0.064,0.337,0.129,0.507,0.191c1.705,0.648,3.39,1.304,5.09,1.952c0.607,0.231,1.215,0.459,1.826,0.688
		c0.287,0.106,0.582,0.212,0.869,0.318c0.503,0.183,1.006,0.366,1.514,0.545c0.315,0.112,0.632,0.223,0.952,0.335
		c0.516,0.176,1.035,0.351,1.56,0.526c0.308,0.1,0.607,0.202,0.919,0.299c0.687,0.22,1.385,0.435,2.096,0.645
		c0.154,0.046,0.304,0.096,0.462,0.139c0.849,0.248,1.722,0.485,2.615,0.715c0.291,0.075,0.591,0.146,0.886,0.218
		c0.641,0.158,1.289,0.312,1.955,0.46c0.349,0.079,0.707,0.154,1.064,0.229c0.665,0.142,1.348,0.274,2.037,0.403
		c0.35,0.064,0.695,0.131,1.049,0.191c0.977,0.17,1.979,0.331,3.019,0.478c0.075,0.011,0.142,0.021,0.217,0.033
		c1.11,0.154,2.271,0.289,3.464,0.414c0.361,0.037,0.74,0.068,1.11,0.104c0.856,0.081,1.729,0.154,2.628,0.218
		c0.457,0.031,0.919,0.063,1.385,0.089c0.911,0.054,1.851,0.098,2.812,0.135c0.437,0.017,0.86,0.035,1.306,0.05
		c1.414,0.04,2.861,0.066,4.375,0.066c42.237,0,63.354-8.188,63.354-8.188v290.756c0,0-21.117,8.192-63.354,8.192
		c-42.227,0-42.771-16.376-84.452-16.376c-41.71,0-63.351,16.376-63.351,16.376v-290.76c0,0,0.149-0.108,0.32-0.229
		c0.054-0.038,0.149-0.104,0.216-0.15c0.2-0.137,0.482-0.324,0.799-0.532c0.142-0.091,0.308-0.197,0.474-0.304
		c0.366-0.233,0.819-0.507,1.302-0.796c0.208-0.123,0.396-0.237,0.62-0.368c1.484-0.861,3.422-1.9,5.788-3.019
		c0.316-0.15,0.674-0.304,1.007-0.458c0.91-0.416,1.879-0.84,2.906-1.271c0.445-0.187,0.902-0.372,1.373-0.56
		c1.076-0.432,2.225-0.863,3.418-1.293c0.462-0.167,0.898-0.333,1.376-0.497c1.71-0.59,3.506-1.175,5.436-1.734h-0.004
		c9.905-2.872,22.705-5.167,38.32-5.167C345.471,87.721,355.297,90.004,363.701,92.865z M182.091,87.721
		c15.665,0,28.498,2.31,38.42,5.196l0,0c1.905,0.553,3.672,1.131,5.36,1.715c0.512,0.177,0.986,0.355,1.48,0.535
		c1.148,0.416,2.263,0.833,3.302,1.251c0.482,0.193,0.961,0.387,1.423,0.58c1.006,0.422,1.954,0.838,2.849,1.248
		c0.345,0.158,0.711,0.318,1.035,0.472c2.354,1.114,4.283,2.148,5.76,3.004c0.229,0.135,0.424,0.251,0.632,0.376
		c0.47,0.283,0.915,0.551,1.276,0.782c0.175,0.11,0.346,0.218,0.495,0.316c0.308,0.202,0.587,0.387,0.782,0.522
		c0.066,0.046,0.166,0.112,0.216,0.15c0.175,0.121,0.32,0.229,0.32,0.229v290.76c0,0-21.641-16.376-63.351-16.376
		c-41.682,0-42.227,16.376-84.452,16.376c-42.238,0-63.355-8.192-63.355-8.192V95.909c0,0,21.117,8.188,63.355,8.188
		c1.506,0,2.949-0.027,4.351-0.066c0.448-0.013,0.877-0.033,1.317-0.05c0.948-0.038,1.885-0.079,2.791-0.133
		c0.466-0.027,0.923-0.058,1.376-0.089c0.882-0.063,1.738-0.135,2.578-0.212c0.388-0.036,0.786-0.069,1.165-0.11
		c1.114-0.114,2.204-0.243,3.252-0.385c0.066-0.01,0.137-0.017,0.203-0.025c1.115-0.154,2.184-0.326,3.228-0.507
		c0.328-0.056,0.645-0.119,0.969-0.177c0.711-0.133,1.414-0.268,2.101-0.412c0.354-0.073,0.702-0.15,1.043-0.225
		c0.657-0.146,1.298-0.297,1.926-0.451c0.308-0.075,0.62-0.149,0.923-0.227c0.786-0.204,1.56-0.412,2.316-0.628
		c0.108-0.033,0.229-0.063,0.337-0.094c0.865-0.25,1.701-0.509,2.528-0.771c0.271-0.087,0.541-0.179,0.812-0.266
		c0.553-0.183,1.105-0.368,1.65-0.555c0.308-0.106,0.615-0.214,0.924-0.322c0.503-0.179,1.002-0.357,1.497-0.541
		c0.303-0.11,0.606-0.22,0.906-0.331c0.507-0.189,1.011-0.378,1.514-0.567c1.805-0.687,3.585-1.379,5.385-2.065
		c0.134-0.048,0.263-0.098,0.392-0.147c0.674-0.256,1.355-0.51,2.042-0.761c0.146-0.052,0.291-0.106,0.437-0.16
		c0.807-0.293,1.626-0.586,2.457-0.871l0,0C156.516,90.05,166.38,87.721,182.091,87.721z M337.748,155.555
		c-15.752,0-26.972,3.66-33.534,6.646v-11.773c7.835-2.96,19.021-5.726,33.534-5.726c15.254,0,23.417,3.144,30.615,5.917
		c6.292,2.424,11.728,4.521,23.205,4.521c19.025,0,30.673-2.782,34.765-3.959v11.228c-6.292,1.53-17.877,3.584-34.765,3.584
		C364.658,165.993,364.309,155.555,337.748,155.555z M143.637,150.619c7.198-2.773,15.361-5.917,30.615-5.917
		c14.513,0,25.699,2.766,33.534,5.726V162.2c-6.563-2.986-17.782-6.646-33.534-6.646c-26.561,0-26.91,10.438-53.82,10.438
		c-16.888,0-28.474-2.054-34.765-3.584v-11.232c4.158,1.198,15.794,3.963,34.765,3.963
		C131.909,155.139,137.345,153.043,143.637,150.619z M337.748,240.722c-15.752,0-26.972,3.659-33.534,6.645v-11.772
		c7.835-2.961,19.021-5.727,33.534-5.727c15.254,0,23.417,3.144,30.615,5.918c6.292,2.424,11.728,4.52,23.205,4.52
		c19.025,0,30.673-2.782,34.765-3.959v11.228c-6.292,1.53-17.877,3.585-34.765,3.585
		C364.658,251.16,364.309,240.722,337.748,240.722z M174.252,229.868c14.513,0,25.699,2.766,33.534,5.727v11.772
		c-6.563-2.986-17.782-6.645-33.534-6.645c-26.561,0-26.91,10.438-53.82,10.438c-16.888,0-28.474-2.055-34.765-3.585v-11.232
		c4.158,1.198,15.794,3.963,34.765,3.963c11.478,0,16.913-2.096,23.205-4.52C150.835,233.012,158.998,229.868,174.252,229.868z
		 M337.748,325.889c-15.752,0-26.972,3.659-33.534,6.645v-11.772c7.835-2.961,19.021-5.727,33.534-5.727
		c15.254,0,23.417,3.145,30.615,5.918c6.292,2.425,11.728,4.521,23.205,4.521c19.025,0,30.673-2.782,34.765-3.959v11.228
		c-6.292,1.53-17.877,3.585-34.765,3.585C364.658,336.326,364.309,325.889,337.748,325.889z M174.252,315.034
		c14.513,0,25.699,2.766,33.534,5.727v11.772c-6.563-2.985-17.782-6.645-33.534-6.645c-26.561,0-26.91,10.438-53.82,10.438
		c-16.888,0-28.474-2.055-34.765-3.585V321.51c4.158,1.197,15.794,3.963,34.765,3.963c11.478,0,16.913-2.096,23.205-4.521
		C150.835,318.179,158.998,315.034,174.252,315.034z M337.748,283.305c-15.752,0-26.972,3.66-33.534,6.646v-11.772
		c7.835-2.961,19.021-5.727,33.534-5.727c15.254,0,23.417,3.144,30.615,5.918c6.292,2.424,11.728,4.52,23.205,4.52
		c19.025,0,30.673-2.781,34.765-3.959v11.229c-6.292,1.53-17.877,3.585-34.765,3.585
		C364.658,293.743,364.309,283.305,337.748,283.305z M174.252,272.451c14.513,0,25.699,2.766,33.534,5.727v11.772
		c-6.563-2.985-17.782-6.646-33.534-6.646c-23.688,0-26.577,8.284-46.002,10.08V282.49c6.521-0.716,10.729-2.325,15.387-4.121
		C150.835,275.595,158.998,272.451,174.252,272.451z M337.748,198.138c-15.752,0-26.972,3.66-33.534,6.646v-11.773
		c7.835-2.961,19.021-5.726,33.534-5.726c15.254,0,23.417,3.144,30.615,5.917c4.662,1.796,8.866,3.406,15.391,4.125v10.892
		C364.325,206.422,361.436,198.138,337.748,198.138z M174.252,187.285c14.513,0,25.699,2.765,33.534,5.726v11.773
		c-6.563-2.986-17.782-6.646-33.534-6.646c-26.561,0-26.91,10.438-53.82,10.438c-16.888,0-28.474-2.054-34.765-3.584v-11.232
		c4.158,1.198,15.794,3.963,34.765,3.963c11.478,0,16.913-2.096,23.205-4.52C150.835,190.428,158.998,187.285,174.252,187.285z"></path></g></svg>