<?xml version="1.0" encoding="iso-8859-1"?>
<!DOCTYPE svg PUBLIC "-//W3C//DTD SVG 1.1//EN" "http://www.w3.org/Graphics/SVG/1.1/DTD/svg11.dtd">
<svg 
 version="1.1" xmlns="http://www.w3.org/2000/svg" xmlns:xlink="http://www.w3.org/1999/xlink" x="0px" y="0px" width="512px"
	 height="512px" viewBox="0 0 512 512" style="enable-background:new 0 0 512 512;" xml:space="preserve"
><g id="afcae5a789ccd549f9c6e2a2f809837e"><g></g><path style="display: inline;" d="M511.5,158.543l-35.121-35.122l-70.242,70.24l-35.117-35.119l70.238-70.243L353.459,0.5
		l-70.242,70.243l-17.561-17.561L230.54,88.301l35.081,35.081c-2.335,1.867-13.005,9.731-36.947,18.392
		c-25.89,9.364-52.108,1.869-52.368,1.792l-21.598-6.572l-8.593,20.872L23.193,456.388L0.5,511.5l55.112-22.695l298.525-122.92
		l20.869-8.593l-6.572-21.598c-0.034-0.12-7.53-26.588,1.792-52.37c8.658-23.941,16.518-34.61,18.389-36.945l35.082,35.084
		l35.121-35.119l-17.561-17.561L511.5,158.543z M346.872,274.878c-12.436,34.388-2.195,68.042-2.195,68.042L76.012,453.554
		l156.054-156.064c13.844,6.606,30.91,4.217,42.367-7.246c14.552-14.549,14.552-38.133,0-52.682
		c-14.541-14.546-38.125-14.546-52.677,0c-11.467,11.465-13.853,28.524-7.246,42.37L58.449,435.988L169.08,167.321
		c0,0,33.654,10.245,68.042-2.193c34.388-12.441,46.095-24.146,46.095-24.146l26.014,26.014l61.789,61.787
		C371.01,228.793,359.308,240.503,346.872,274.878z"></path></g></svg>